<svg aria-hidden="true" style="position: absolute; width: 0; height: 0; overflow: hidden;" version="1.1" xmlns="http://www.w3.org/2000/svg" xmlns:xlink="http://www.w3.org/1999/xlink">
<defs>
<symbol id="icon-twitter" viewBox="0 0 20 20">
<path d="M17.544 6.129c0.008 0.167 0.011 0.336 0.011 0.503 0 5.146-3.916 11.077-11.075 11.077-2.2 0-4.245-0.645-5.968-1.75 0.305 0.036 0.615 0.055 0.928 0.055 1.825 0 3.503-0.623 4.834-1.665-1.703-0.032-3.141-1.156-3.636-2.703 0.237 0.044 0.482 0.068 0.732 0.068 0.356 0 0.7-0.046 1.026-0.135-1.781-0.359-3.123-1.931-3.123-3.819 0-0.016 0-0.032 0-0.048 0.525 0.292 1.126 0.467 1.763 0.488-1.045-0.699-1.732-1.889-1.732-3.241 0-0.713 0.192-1.382 0.528-1.957 1.919 2.356 4.789 3.905 8.024 4.068-0.066-0.286-0.1-0.582-0.1-0.888 0-2.149 1.742-3.891 3.892-3.891 1.12 0 2.132 0.471 2.842 1.228 0.886-0.175 1.719-0.499 2.472-0.945-0.291 0.908-0.908 1.672-1.712 2.153 0.788-0.095 1.537-0.302 2.236-0.613-0.522 0.782-1.182 1.466-1.943 2.014z"></path>
</symbol>
<symbol id="icon-apartment" viewBox="0 0 20 20">
<path d="M17.114 13.056v-2.053h-2.005v2.053h2.005zM17.114 17.114v-2.005h-2.005v2.005h2.005zM13.056 4.892v-2.005h-2.053v2.005h2.053zM13.056 8.997v-2.053h-2.053v2.053h2.053zM13.056 13.056v-2.053h-2.053v2.053h2.053zM8.997 4.892v-2.005h-2.053v2.005h2.053zM8.997 8.997v-2.053h-2.053v2.053h2.053zM8.997 13.056v-2.053h-2.053v2.053h2.053zM4.892 8.997v-2.053h-2.005v2.053h2.005zM4.892 13.056v-2.053h-2.005v2.053h2.005zM4.892 17.114v-2.005h-2.005v2.005h2.005zM15.108 8.997h4.058v10.169h-8.164v-4.058h-2.005v4.058h-8.164v-14.275h4.058v-4.058h10.217v8.164z"></path>
</symbol>
<symbol id="icon-location_pin" viewBox="0 0 20 20">
<path d="M10 1.68v0q-1.211 0-2.266 0.449t-1.855 1.25-1.25 1.855-0.449 2.266q0 1.094 0.293 2.109t0.879 1.914q0.586 0.977 1.309 1.836t1.309 1.836q0.313 0.469 0.527 0.918t0.449 0.957q0.117 0.234 0.234 0.527t0.313 0.508 0.508 0.215v0q0.313 0 0.508-0.215t0.313-0.508 0.234-0.527q0.234-0.508 0.449-0.957t0.527-0.918q0.586-0.938 1.309-1.816t1.309-1.855q0.586-0.898 0.879-1.914t0.293-2.109q0-1.211-0.449-2.266t-1.25-1.855-1.855-1.25-2.266-0.449zM10 9.805q-0.859 0-1.465-0.625t-0.605-1.484 0.605-1.465 1.465-0.605 1.465 0.605 0.605 1.465-0.605 1.484-1.465 0.625z"></path>
</symbol>
<symbol id="icon-link" viewBox="0 0 20 20">
<path d="M7.666 11.333c0.827 1.106 2.025 1.772 3.29 1.954s2.602-0.118 3.708-0.945c0.199-0.149 0.387-0.313 0.546-0.473l2.496-2.496c0.969-1.003 1.435-2.293 1.413-3.571s-0.533-2.551-1.526-3.509c-0.977-0.943-2.24-1.41-3.499-1.403-1.243 0.007-2.487 0.476-3.448 1.403l-1.442 1.434c-0.327 0.324-0.328 0.852-0.003 1.178s0.852 0.328 1.178 0.003l1.424-1.416c0.642-0.618 1.469-0.931 2.3-0.936 0.841-0.005 1.68 0.306 2.332 0.935 0.663 0.64 1.003 1.486 1.018 2.34s-0.296 1.712-0.925 2.363l-2.504 2.504c-0.095 0.097-0.219 0.206-0.357 0.308-0.737 0.552-1.627 0.752-2.472 0.63s-1.643-0.565-2.193-1.303c-0.276-0.368-0.798-0.444-1.167-0.168s-0.444 0.797-0.168 1.167zM12.334 8.668c-0.827-1.106-2.025-1.772-3.29-1.954s-2.603 0.118-3.709 0.945c-0.199 0.149-0.387 0.313-0.546 0.473l-2.496 2.496c-0.969 1.003-1.435 2.293-1.413 3.571s0.532 2.551 1.526 3.509c0.977 0.943 2.24 1.41 3.499 1.402 1.243-0.007 2.487-0.476 3.447-1.402l1.436-1.436c0.326-0.326 0.326-0.853 0-1.178s-0.853-0.326-1.178 0l-1.413 1.415c-0.642 0.618-1.469 0.931-2.3 0.936-0.841 0.005-1.68-0.306-2.332-0.935-0.662-0.64-1.002-1.486-1.018-2.34s0.296-1.712 0.925-2.363l2.504-2.504c0.095-0.097 0.219-0.206 0.357-0.308 0.737-0.552 1.627-0.752 2.473-0.63s1.642 0.565 2.193 1.303c0.276 0.368 0.798 0.444 1.167 0.168s0.444-0.798 0.168-1.167z"></path>
</symbol>
<symbol id="icon-search" viewBox="0 0 20 20">
<path d="M13.368 13.213c-0.028 0.022-0.056 0.046-0.083 0.072s-0.050 0.053-0.072 0.082c-1.048 1.011-2.474 1.632-4.046 1.632-1.611 0-3.068-0.652-4.125-1.708s-1.708-2.514-1.708-4.125 0.652-3.068 1.708-4.125 2.514-1.708 4.125-1.708 3.068 0.652 4.125 1.708 1.708 2.514 1.708 4.125c0 1.572-0.621 2.998-1.633 4.047zM18.089 16.911l-3.063-3.063c1.026-1.283 1.64-2.911 1.64-4.682 0-2.071-0.84-3.947-2.197-5.303s-3.232-2.197-5.303-2.197-3.947 0.84-5.303 2.197-2.197 3.232-2.197 5.303 0.84 3.947 2.197 5.303 3.233 2.197 5.303 2.197c1.771 0 3.398-0.614 4.682-1.64l3.063 3.063c0.326 0.326 0.853 0.326 1.178 0s0.326-0.853 0-1.178z"></path>
</symbol>
<symbol id="icon-light" viewBox="0 0 20 20">
<path d="M2.969 15.469l1.484-1.523 1.172 1.172-1.484 1.523zM9.18 18.711v-2.461h1.641v2.461h-1.641zM10 4.57q2.070 0 3.535 1.465t1.465 3.535-1.465 3.535-3.535 1.465-3.535-1.465-1.465-3.535 1.465-3.535 3.535-1.465zM16.68 8.75h2.5v1.68h-2.5v-1.68zM14.375 15.117l1.172-1.133 1.484 1.484-1.172 1.172zM17.031 3.711l-1.484 1.484-1.172-1.172 1.484-1.484zM10.82 0.469v2.461h-1.641v-2.461h1.641zM3.32 8.75v1.68h-2.5v-1.68h2.5zM5.625 4.023l-1.172 1.172-1.484-1.484 1.172-1.172z"></path>
</symbol>
<symbol id="icon-dark" viewBox="0 0 20 20">
<path d="M11.68 18.32q-3.477 0-5.918-2.441t-2.441-5.879 2.441-5.879 5.918-2.441q2.266 0 4.141 1.094-1.914 1.094-3.027 3.027t-1.113 4.199 1.113 4.199 3.027 3.027q-1.875 1.094-4.141 1.094z"></path>
</symbol>
</defs>
</svg>
